# AST/ASF file generated using VICON BodyLanguage
# -----------------------------------------------
:version 1.10
:name VICON
:units
  mass 1.0
  length 0.45
  angle deg
:documentation
   .ast/.asf automatically generated from VICON data using
   VICON BodyBuilder and BodyLanguage model FoxedUp or BRILLIANT.MOD
:root
   order TX TY TZ RX RY RZ
   axis XYZ
   position 0 0 0  
   orientation 0 -0 0 
:bonedata
  begin
     id 1 
     name lhipjoint
     direction 0.432694 -0.693742 0.575759 
     length 2.19277 
     axis 0 -0 0  XYZ
  end
  begin
     id 2 
     name lfemur
     direction 0.34202 -0.939693 0  
     length 6.69022  
     axis 0 -0 20  XYZ
    dof rx ry rz
    limits (-160.0 20.0)
           (-70.0 70.0)
           (-60.0 70.0)
  end
  begin
     id 3 
     name ltibia
     direction 0.34202 -0.939693 0   
     length 6.50337   
     axis 0 -0 20   XYZ
    dof rx
    limits (-10.0 170.0)
  end
  begin
     id 4 
     name lfoot
     direction 0.158999 -0.435969 0.885805   
     length 2.70564   
     axis -90 -1.13533e-015 20   XYZ
    dof rx rz
    limits (-45.0 90.0)
           (-70.0 20.0)
  end
  begin
     id 5 
     name ltoes
     direction -0.00592919 0.00964381 0.999936   
     length 1.29929   
     axis -90 -1.13533e-015 20   XYZ
    dof rx
    limits (-90.0 20.0)
  end
  begin
     id 6 
     name rhipjoint
     direction -0.414359 -0.700339 0.581234   
     length 2.17212  
     axis 0 -0 0  XYZ 
  end
  begin
     id 7 
     name rfemur
     direction -0.34202 -0.939693 0   
     length 7.17659   
     axis 0 -0 -20   XYZ
    dof rx ry rz
    limits (-160.0 20.0)
           (-70.0 70.0)
           (-70.0 60.0)
  end
  begin
     id 8 
     name rtibia
     direction -0.34202 -0.939693 0   
     length 6.36669   
     axis 0 -0 -20   XYZ
    dof rx
    limits (-10.0 170.0)
 end
 begin
     id 9 
     name rfoot
     direction -0.137064 -0.37658 0.916188   
     length 2.22351  
     axis -90 1.13533e-015 -20   XYZ
    dof rx rz
    limits (-45.0 90.0)
           (-20.0 70.0)
  end
  begin
     id 10 
     name rtoes
     direction -0.000784077 -0.00289101 0.999996   
     length 1.09522   
     axis -90 1.13533e-015 -20   XYZ
    dof rx
    limits (-90.0 20.0)
  end
  begin
     id 11 
     name lowerback
     direction -0.0176242 0.984912 -0.172157   
     length 1.65301   
     axis 0 -0 0   XYZ
    dof rx ry rz
    limits (-20.0 45.0)
           (-30.0 30.0)
           (-30.0 30.0)
  end
  begin
     id 12 
     name upperback
     direction -0.00218128 0.998776 -0.0494072   
     length 1.67776   
     axis 0 -0 0   XYZ
    dof rx ry rz
    limits (-20.0 45.0)
           (-30.0 30.0)
           (-30.0 30.0)
  end
  begin
     id 13 
     name thorax
     direction 0.00544186 0.999658 0.0255711   
     length 1.72293   
     axis 0 -0 0   XYZ
    dof rx ry rz
    limits (-20.0 45.0)
           (-30.0 30.0)
           (-30.0 30.0)
  end
  begin
     id 14 
     name lowerneck
     direction -0.105325 0.983841 0.144785   
     length 2.14226   
     axis 0 -0 0   XYZ
    dof rx ry rz
    limits (-20.0 45.0)
           (-30.0 30.0)
           (-30.0 30.0)
  end
  begin
     id 15 
     name upperneck
     direction 0.0547957 0.988053 -0.144041   
     length 2.17508   
     axis 0 -0 0   XYZ
    dof rx ry rz
    limits (-20.0 45.0)
           (-30.0 30.0)
           (-30.0 30.0)
  end
  begin
     id 16
     name head
     direction 0.0247488 0.997534 -0.0656813  
     length 2.20048  
     axis 0 -0 0   XYZ
    dof rx ry rz
    limits (-20.0 45.0)
           (-30.0 30.0)
           (-30.0 30.0)
  end
  begin
     id 17 
     name lclavicle
     direction 0.820559 0.567247 -0.0701026  
     length 4.09615  
     axis 0 -0 0   XYZ
    dof ry rz
    limits (-20.0 10.0)
           (0.0 20.0)
  end
  begin
     id 18 
     name lhumerus
     direction 0.999977 -0.0067566 -9.96392e-005   
     length 4.59333   
     axis -180 -30 -90   XYZ
    dof rx ry rz
    limits (-60.0 90.0)
           (-90.0 90.0)
           (-90.0 90.0)
  end
  begin
     id 19
     name lradius
     direction 1 -4.48982e-011 -2.53425e-027   
     length 2.81151   
     axis -180 -30 -90   XYZ
    dof rx
    limits (-10.0 170.0)
  end
  begin
     id 20
     name lwrist
     direction 1 -4.48939e-011 -7.39254e-028   
     length 1.40576   
     axis 2.56395e-016 90 90   XYZ
    dof ry
    limits (-180.0 0.0)
 end
  begin
     id 21 
     name lhand
     direction 1 -4.48939e-011 -1.47851e-027   
     length 0.895651   
     axis 9.43423e-016 90 90   XYZ
    dof rx rz
    limits (-90.0 90.0)
           (-45.0 45.0)
  end
  begin
     id 22 
     name lfingers
     direction 1 -4.48978e-011 -2.95702e-027   
     length 0.722097   
     axis 1.88685e-015 90 90   XYZ
    dof rx
    limits (0.0 90.0)
  end
  begin
     id 23
     name lthumb
     direction 0.707107 -6.34931e-011 0.707107   
     length 1.03679   
     axis -90 45 -9.86935e-015   XYZ
    dof rx rz
    limits (-45.0 45.0)
           (-45.0 45.0)
  end
  begin
     id 24 
     name rclavicle
     direction -0.831414 0.553102 -0.0531864   
     length 4.24872  
     axis 0 -0 0   XYZ 
    dof ry rz
    limits (-10.0 20.0)
           (-20.0 0.0)
  end
  begin
     id 25 
     name rhumerus
     direction -0.999916 -0.000939607 0.0129331  
     length 4.74834   
     axis -180 30 90   XYZ
    dof rx ry rz
    limits (-90.0 60.0)
           (-90.0 90.0)
           (-90.0 90.0)
  end
  begin
     id 26 
     name rradius
     direction -1 -4.48956e-011 -1.31752e-027   
     length 2.79907   
     axis -180 30 90   XYZ
    dof rx
    limits (-10.0 170.0)
  end
  begin
     id 27 
     name rwrist
     direction -1 -4.4897e-011 -7.39254e-028   
     length 1.39954   
     axis 2.56395e-016 -90 -90   XYZ
    dof ry
    limits (-180.0 0.0)
  end
  begin
     id 28
     name rhand
     direction -0.999997 -0.00250697 0.000800838   
     length 0.953304   
     axis 9.43423e-016 -90 -90   XYZ
    dof rx rz
    limits (-90.0 90.0)
           (-45.0 45.0)
  end
  begin
     id 29
     name rfingers
     direction -1 -4.48954e-011 -2.95702e-027   
     length 0.763342   
     axis 1.88685e-015 -90 -90   XYZ
    dof rx
    limits (0.0 90.0)
  end
  begin
     id 30
     name rthumb
     direction -0.709701 -0.00217037 0.7045   
     length 1.10115   
     axis -90 -45 9.86935e-015   XYZ
    dof rx rz
    limits (-45.0 45.0)
           (-45.0 45.0)
  end
:hierarchy
  begin
    root lhipjoint rhipjoint lowerback
    lhipjoint lfemur
    lfemur ltibia
    ltibia lfoot
    lfoot ltoes
    rhipjoint rfemur
    rfemur rtibia
    rtibia rfoot
    rfoot rtoes
    lowerback upperback
    upperback thorax
    thorax lowerneck lclavicle rclavicle
    lowerneck upperneck
    upperneck head
    lclavicle lhumerus
    lhumerus lradius
    lradius lwrist
    lwrist lhand lthumb
    lhand lfingers
    rclavicle rhumerus
    rhumerus rradius
    rradius rwrist
    rwrist rhand rthumb
    rhand rfingers
  end

#!OML:ASF G:\ViconDB\ViconDB\414\test\team2\shane.ASF
:FULLY-SPECIFIED
:DEGREES
17
root 6.18638 14.7979 -20.9129 20.2893 -8.88821 -6.62959
lowerback 22.1431 2.69605 3.75005
upperback 11.7397 4.06969 3.13977
thorax 0.513895 2.02277 0.383204
lowerneck -18.363 -2.01488 -1.03863
upperneck -1.38664 -2.60051 2.45706
head 2.80724 -1.20349 0.787213
rclavicle 4.77083e-015 2.66371e-014
rhumerus 23.8213 11.9123 -97.4977
rradius 104.751
rwrist -158.861
rhand 14.6075 14.1595
rfingers 7.12502
rthumb 39.4821 -11.2207
lclavicle 4.77083e-015 2.66371e-014
lhumerus -34.5262 -26.1027 86.7086
lradius 27.1361
lwrist -18.2782
lhand -48.1924 9.10766
lfingers 7.12502
lthumb -20.8533 38.0069
rfemur -41.1638 -22.5048 28.8577
rtibia 73.6861
rfoot -40.3726 0.315578
rtoes -22.834
lfemur -21.5552 10.0603 -7.32426
ltibia 95.473
lfoot -13.014 -25.5049
ltoes -10.7781
18
root 6.14908 14.8474 -20.4799 19.9579 -9.3742 -6.79338
lowerback 22.2732 3.31772 3.50107
upperback 11.386 4.83275 2.78446
thorax 0.0838238 2.39401 -0.0365081
lowerneck -17.9149 -2.30687 -0.477611
upperneck -1.66373 -3.11897 2.89213
head 2.63501 -1.45012 0.793238
rclavicle 7.79236e-014 -2.78299e-015
rhumerus 25.2078 11.5883 -97.4672
rradius 107.118
rwrist -159.117
rhand 14.9978 14.4101
rfingers 7.12502
rthumb 39.8496 -10.8611
lclavicle 7.79236e-014 -2.78299e-015
lhumerus -38.6736 -26.6257 86.4074
lradius 28.0933
lwrist -17.4315
lhand -47.6058 7.81053
lfingers 7.12502
lthumb -20.2896 36.7707
rfemur -37.6709 -21.9134 27.8457
rtibia 71.8313
rfoot -40.6939 -0.739191
rtoes -23.3084
lfemur -25.4763 11.6403 -6.54367
ltibia 98.9633
lfoot -15.3436 -24.0054
ltoes -9.84115
19
root 6.13332 14.8938 -20.0459 19.6083 -9.70181 -6.987
lowerback 22.5886 3.77405 3.57271
upperback 10.9111 5.45411 2.37698
thorax -0.52816 2.70361 -0.683471
lowerneck -17.5185 -2.56365 0.0180176
upperneck -1.71778 -3.57388 3.33642
head 2.55107 -1.66348 0.820074
rclavicle 3.81667e-014 -1.90833e-014
rhumerus 26.2889 10.9327 -97.1905
rradius 109.17
rwrist -159.507
rhand 14.6943 14.7649
rfingers 7.12502
rthumb 39.5638 -10.5913
lclavicle 3.81667e-014 -1.90833e-014
lhumerus -42.9729 -27.169 86.2202
lradius 29.4618
lwrist -16.3189
lhand -47.2959 6.91854
lfingers 7.12502
lthumb -19.9917 35.9101
rfemur -34.153 -21.4918 26.9165
rtibia 69.676
rfoot -40.7139 -1.89777
rtoes -23.7865
lfemur -29.4316 13.0095 -5.8926
ltibia 101.764
lfoot -17.3406 -22.4925
ltoes -9.53195
20
root 6.09633 14.9539 -19.6055 19.3044 -9.73737 -6.95623
lowerback 22.3974 4.18245 3.28016
upperback 10.5805 5.92203 2.00869
thorax -0.77122 2.93167 -1.0159
lowerneck -17.2257 -2.91854 0.0676304
upperneck -1.65263 -4.08852 4.18632
head 2.55283 -1.88762 1.05436
rclavicle 1.19271e-014 -2.62396e-014
rhumerus 27.3303 10.2638 -96.8156
rradius 111.04
rwrist -159.412
rhand 15.0544 15.4926
rfingers 7.12502
rthumb 39.9028 -9.76271
lclavicle 1.19271e-014 -2.62396e-014
lhumerus -47.0135 -27.5843 85.8813
lradius 31.4437
lwrist -15.5855
lhand -47.2352 6.32985
lfingers 7.12502
lthumb -19.9334 35.3275
rfemur -30.6099 -20.9273 25.9459
rtibia 67.2354
rfoot -40.391 -3.91222
rtoes -25.0368
lfemur -33.5678 14.075 -5.4743
ltibia 103.697
lfoot -18.9378 -21.3329
ltoes -8.26807
21
root 6.07789 15.0152 -19.1458 18.7713 -9.62952 -7.01097
lowerback 22.5647 4.50084 3.24454
upperback 10.1561 6.34406 1.77114
thorax -1.27681 3.13423 -1.37638
lowerneck -16.815 -3.25918 0.0483957
upperneck -1.41803 -4.56342 4.73754
head 2.58831 -2.10223 1.20698
rclavicle -5.96354e-015 1.11319e-014
rhumerus 27.7934 9.35174 -96.078
rradius 112.482
rwrist -159.816
rhand 15.2731 15.4086
rfingers 7.12502
rthumb 40.1087 -9.78459
lclavicle -5.96354e-015 1.11319e-014
lhumerus -51.331 -28.1446 86.0875
lradius 33.6765
lwrist -14.8617
lhand -47.7594 6.4894
lfingers 7.12502
lthumb -20.4372 35.4339
rfemur -26.6416 -20.1603 24.909
rtibia 64.4454
rfoot -39.7308 -5.41542
rtoes -26.2332
lfemur -37.2339 14.784 -5.1576
ltibia 104.77
lfoot -20.7025 -20.255
ltoes -7.75581
22
root 6.06768 15.08 -18.6784 18.152 -9.57643 -6.78887
lowerback 22.5765 4.74802 3.08504
upperback 9.85404 6.63137 1.34849
thorax -1.56565 3.27652 -1.81723
lowerneck -16.4174 -3.57913 0.0115949
upperneck -1.21737 -5.01421 5.42668
head 2.62291 -2.30016 1.41125
rclavicle -1.56245e-013 4.13472e-014
rhumerus 28.0022 8.49698 -95.4607
rradius 113.816
rwrist -159.786
rhand 14.8532 15.7529
rfingers 7.12502
rthumb 39.7135 -9.55898
lclavicle -1.56245e-013 4.13472e-014
lhumerus -55.082 -28.3542 85.9021
lradius 36.0465
lwrist -14.9662
lhand -48.1386 7.37781
lfingers 7.12502
lthumb -20.8015 36.2828
rfemur -22.5749 -19.1023 23.5371
rtibia 61.3405
rfoot -38.6552 -6.31258
rtoes -26.5417
lfemur -40.8796 15.2216 -5.60006
ltibia 104.998
lfoot -22.5711 -18.9939
ltoes -8.09669
